<svg xmlns="http://www.w3.org/2000/svg" viewBox="0 0 100 100">
  <defs>
    <linearGradient id="grad" x1="0%" y1="0%" x2="100%" y2="100%">
      <stop offset="0%" style="stop-color:#3B82F6;stop-opacity:1" />
      <stop offset="100%" style="stop-color:#10B981;stop-opacity:1" />
    </linearGradient>
  </defs>
  
  <!-- Background circle -->
  <circle cx="50" cy="50" r="48" fill="url(#grad)"/>
  
  <!-- Receipt icon -->
  <g fill="white">
    <!-- Receipt body -->
    <rect x="25" y="20" width="50" height="60" rx="3" fill="white" opacity="0.95"/>
    
    <!-- Receipt zigzag bottom -->
    <path d="M 25,80 L 30,75 L 35,80 L 40,75 L 45,80 L 50,75 L 55,80 L 60,75 L 65,80 L 70,75 L 75,80 L 75,20 L 25,20 Z" fill="white" opacity="0.95"/>
    
    <!-- Dollar sign -->
    <g fill="url(#grad)" opacity="0.9">
      <path d="M 48,35 L 48,30 L 52,30 L 52,35" stroke="url(#grad)" stroke-width="1.5"/>
      <path d="M 50,36 Q 42,36 42,42 Q 42,48 50,48 Q 58,48 58,54 Q 58,60 50,60 Q 42,60 42,54" stroke="url(#grad)" stroke-width="3" fill="none" stroke-linecap="round"/>
      <path d="M 48,66 L 48,61 L 52,61 L 52,66" stroke="url(#grad)" stroke-width="1.5"/>
    </g>
  </g>
</svg>
